<svg width="368" height="464" viewBox="0 0 368 464" fill="none" xmlns="http://www.w3.org/2000/svg">
<path d="M0 48V448C4.24339e-05 452.243 1.68577 456.313 4.68634 459.314C7.68691 462.314 11.7565 464 16 464H288C292.243 464 296.313 462.314 299.314 459.314C302.314 456.313 304 452.243 304 448V48H0Z" fill="#0071AF"/>
<path d="M336 0H32C23.5131 0 15.3737 3.37142 9.37258 9.37258C3.37142 15.3737 0 23.5131 0 32V48H304V32C304 23.5131 307.371 15.3737 313.373 9.37258C319.374 3.37142 327.513 0 336 0V0Z" fill="#7DB6D6"/>
<path d="M336 0C344.487 0 352.626 3.37142 358.627 9.37258C364.629 15.3737 368 23.5131 368 32V272C368 276.243 366.314 280.313 363.314 283.314C360.313 286.314 356.243 288 352 288H304V32C304 23.5131 307.371 15.3737 313.373 9.37258C319.374 3.37142 327.513 0 336 0V0Z" fill="#00659D"/>
<path d="M0 48V80L25.331 96L50.6628 80L75.9948 96L101.323 80L126.653 96L151.984 80L177.318 96L202.653 80L227.987 96L253.322 80L278.661 96L304 80V48H0Z" fill="#5CA4CC"/>
<path d="M216 152H104V168H216V152Z" fill="#59CEA7"/>
<path d="M216 232H104V248H216V232Z" fill="#59CEA7"/>
<path d="M216 312H104V328H216V312Z" fill="#59CEA7"/>
<path d="M64 136H48C39.1634 136 32 143.163 32 152V168C32 176.837 39.1634 184 48 184H64C72.8366 184 80 176.837 80 168V152C80 143.163 72.8366 136 64 136Z" fill="#31C292"/>
<path d="M64 216H48C39.1634 216 32 223.163 32 232V248C32 256.837 39.1634 264 48 264H64C72.8366 264 80 256.837 80 248V232C80 223.163 72.8366 216 64 216Z" fill="#31C292"/>
<path d="M64 296H48C39.1634 296 32 303.163 32 312V328C32 336.837 39.1634 344 48 344H64C72.8366 344 80 336.837 80 328V312C80 303.163 72.8366 296 64 296Z" fill="#31C292"/>
<path d="M64 376H48C39.1634 376 32 383.163 32 392V408C32 416.837 39.1634 424 48 424H64C72.8366 424 80 416.837 80 408V392C80 383.163 72.8366 376 64 376Z" fill="#31C292"/>
<path d="M216 392H104V408H216V392Z" fill="#59CEA7"/>
<path d="M272 400L256 424L240 400V136C240 131.757 241.686 127.687 244.686 124.686C247.687 121.686 251.757 120 256 120C260.243 120 264.313 121.686 267.314 124.686C270.314 127.687 272 131.757 272 136V400Z" fill="#DFDFDF"/>
<path d="M272 160H240V136C240 131.757 241.686 127.687 244.686 124.686C247.687 121.686 251.757 120 256 120C260.243 120 264.313 121.686 267.314 124.686C270.314 127.687 272 131.757 272 136V160Z" fill="#EC9090"/>
<path d="M0 48V448C4.24339e-05 452.243 1.68577 456.313 4.68634 459.314C7.68691 462.314 11.7565 464 16 464H288C292.243 464 296.313 462.314 299.314 459.314C302.314 456.313 304 452.243 304 448V48H0Z" fill="#6F42C1"/>
<path d="M336 0H32C23.5131 0 15.3737 3.37142 9.37258 9.37258C3.37142 15.3737 0 23.5131 0 32V48H304V32C304 23.5131 307.371 15.3737 313.373 9.37258C319.374 3.37142 327.513 0 336 0V0Z" fill="#B58CFF"/>
<path d="M336 0C344.487 0 352.626 3.37142 358.627 9.37258C364.629 15.3737 368 23.5131 368 32V272C368 276.243 366.314 280.313 363.314 283.314C360.313 286.314 356.243 288 352 288H304V32C304 23.5131 307.371 15.3737 313.373 9.37258C319.374 3.37142 327.513 0 336 0V0Z" fill="#2E0081"/>
<path d="M216 152H104V168H216V152Z" fill="#6CC1F0"/>
<path d="M216 232H104V248H216V232Z" fill="#6CC1F0"/>
<path d="M216 312H104V328H216V312Z" fill="#6CC1F0"/>
<path d="M64 136H48C39.1634 136 32 143.163 32 152V168C32 176.837 39.1634 184 48 184H64C72.8366 184 80 176.837 80 168V152C80 143.163 72.8366 136 64 136Z" fill="#6CC1F0"/>
<path d="M64 216H48C39.1634 216 32 223.163 32 232V248C32 256.837 39.1634 264 48 264H64C72.8366 264 80 256.837 80 248V232C80 223.163 72.8366 216 64 216Z" fill="#6CC1F0"/>
<path d="M64 296H48C39.1634 296 32 303.163 32 312V328C32 336.837 39.1634 344 48 344H64C72.8366 344 80 336.837 80 328V312C80 303.163 72.8366 296 64 296Z" fill="#6CC1F0"/>
<path d="M64 376H48C39.1634 376 32 383.163 32 392V408C32 416.837 39.1634 424 48 424H64C72.8366 424 80 416.837 80 408V392C80 383.163 72.8366 376 64 376Z" fill="#6CC1F0"/>
<path d="M216 392H104V408H216V392Z" fill="#6CC1F0"/>
<path d="M272 400L256 424L240 400V136C240 131.757 241.686 127.687 244.686 124.686C247.687 121.686 251.757 120 256 120C260.243 120 264.313 121.686 267.314 124.686C270.314 127.687 272 131.757 272 136V400Z" fill="#FDF9FF"/>
<path d="M272 160H240V136C240 131.757 241.686 127.687 244.686 124.686C247.687 121.686 251.757 120 256 120C260.243 120 264.313 121.686 267.314 124.686C270.314 127.687 272 131.757 272 136V160Z" fill="#280070"/>
<path d="M304 448.005V160C304 323.545 174.849 456.905 12.9771 463.706C13.9731 463.899 14.9852 463.998 15.9998 464H288C292.242 464 296.311 462.315 299.312 459.315C302.312 456.316 303.998 452.247 304 448.005V448.005Z" fill="#280070"/>
<path d="M349.146 2.82666C345.015 0.960224 340.533 -0.0034406 336 1.55955e-06V1.55955e-06C331.798 -1.68257e-05 327.637 0.827675 323.754 2.43582C319.872 4.04396 316.344 6.40107 313.373 9.37255C310.401 12.344 308.044 15.8717 306.436 19.7541C304.828 23.6365 304 27.7977 304 32V64C304.001 50.3176 308.385 36.9955 316.51 25.9866C324.635 14.9777 336.072 6.86105 349.146 2.82666V2.82666Z" fill="#250066"/>
<path d="M304 56H16V88L41.331 104L66.663 88L91.995 104L117.323 88L142.653 104L167.984 88L193.318 104L218.653 88L243.987 104L269.322 88L294.661 104L304 98.103V56Z" fill="#250066"/>
<path d="M0 48V80L25.331 96L50.6628 80L75.9948 96L101.323 80L126.653 96L151.984 80L177.318 96L202.653 80L227.987 96L253.322 80L278.661 96L304 80V48H0Z" fill="#B58CFF"/>
<path d="M175.827 408H216V392H196.409C189.782 397.615 182.922 402.948 175.827 408Z" fill="#3C86AE"/>
<path d="M240 346.681V400.113L256 424.113L272 400.113V296C263.028 313.906 252.31 330.882 240 346.681V346.681Z" fill="#E7E7E7"/>
</svg>
